# xmcd CD database file
#
# Track frame offsets:
#	150
#	21134
#	38215
#	47995
#	67385
#	89146
#	104033
#	110874
#	135645
#	166215
#
# Disc length: 2359 seconds
#
# Revision: 2
# Processed by: cddbd v1.5.2PL0 Copyright (c) Steve Scherf et al.
# Submitted via: CDex 1.70beta2
#
DISCID=9b09350a
DTITLE=Knister - Die Socken-Suchmaschine
DYEAR=2006
DGENRE=Hörspiel
TTITLE0=Aufstehen faellt so schwer!
TTITLE1="Hier spricht die Polizei ..."
TTITLE2=Max hilft Jonas beim Nachdenken
TTITLE3=Ein singender Roboter
TTITLE4=.. und ein Professor ohne Ideen
TTITLE5=Die Morgenbrille ist weg
TTITLE6=Ganz schoen praktisch ...
TTITLE7=Auf die Socken - von den Socken
TTITLE8=Ein Probelauf mit Folgen
TTITLE9=Mama ist sprachlos
EXTD=YEAR: 2006
EXTT0=
EXTT1=
EXTT2=
EXTT3=
EXTT4=
EXTT5=
EXTT6=
EXTT7=
EXTT8=
EXTT9=
PLAYORDER=
